<?xml version="1.0" encoding="utf-8"?>
<!-- Generator: Adobe Illustrator 24.0.1, SVG Export Plug-In . SVG Version: 6.00 Build 0)  -->
<svg version="1.1" id="Capa_1" xmlns="http://www.w3.org/2000/svg" xmlns:xlink="http://www.w3.org/1999/xlink" x="0px" y="0px"
	 viewBox="0 0 132.7 43.7" style="enable-background:new 0 0 132.7 43.7;" xml:space="preserve">
<style type="text/css">
	.st0{fill:#00B8E1;}
	.st1{fill:#121212;}
	.st2{fill:#565858;}
</style>
<g>
	<g id="Capa_1_1_">
		<rect x="3.5" y="38.4" class="st0" width="44.7" height="1.7"/>
		<g>
			<path class="st1" d="M5,5.3c1.9-0.4,4.7-0.6,7.2-0.6c4,0,6.4,0.7,8.1,2.2c1.3,1.1,2.2,2.9,2.2,4.9c0,3.5-2.4,5.8-5.2,6.7v0.1
				c2,0.7,3.3,2.6,4,5.1c1,3.7,1.6,6.3,2.2,7.4h-3.7c-0.4-0.7-1-2.9-1.8-6.2c-0.8-3.6-2.3-5-5.6-5.1H8.5v11.3H5C5,31.1,5,5.3,5,5.3z
				 M8.5,17.1h4.2c3.9,0,6.3-1.9,6.3-4.9c0-3.5-2.8-4.8-6.6-4.8c-2,0-3.3,0.2-4,0.4L8.5,17.1L8.5,17.1z"/>
			<path class="st1" d="M27.1,5.3c1.8-0.3,4.2-0.5,7.2-0.5c3.6,0,6.2,0.8,7.8,2.2c1.5,1.3,2.5,3.1,2.5,5.5s-0.7,4.3-2.2,5.7
				c-1.9,1.9-5,2.8-8.7,2.8c-1.2,0-2.3-0.1-3.2-0.3v10.4h-3.5C27.1,31.2,27.1,5.3,27.1,5.3z M30.6,17.9c0.9,0.3,2,0.4,3.4,0.4
				c4.5,0,7.1-2,7.1-5.6c0-3.7-2.9-5.1-6.8-5.1c-1.7,0-3.1,0.1-3.7,0.3V17.9z"/>
		</g>
		<g>
			<path class="st2" d="M55.2,21.3c1.1-0.1,2.6-0.3,4.8-0.3s3.7,0.4,4.8,1.3c1,0.8,1.6,2.1,1.6,3.7c0,1.6-0.5,2.8-1.4,3.7
				c-1.2,1.1-3,1.6-5.1,1.6c-0.4,0-0.9,0-1.2-0.1v5.6h-3.5V21.3z M58.7,28.4c0.3,0.1,0.7,0.1,1.2,0.1c1.9,0,3.1-1,3.1-2.5
				c0-1.4-1-2.3-2.8-2.3c-0.7,0-1.2,0.1-1.4,0.1L58.7,28.4L58.7,28.4z"/>
			<path class="st2" d="M77.8,34c0,1,0.1,2.1,0.1,2.8h-3.2l-0.2-1.1h-0.1c-0.7,0.9-1.9,1.4-3.3,1.4c-2.3,0-3.7-1.6-3.7-3.5
				c0-3,2.7-4.3,6.6-4.3v-0.1c0-0.6-0.3-1.5-2.1-1.5c-1.2,0-2.4,0.4-3.1,0.9l-0.7-2.3c0.8-0.4,2.3-1,4.4-1c3.8,0,5,2.2,5,4.9v4H77.8
				z M74.5,31.4c-1.9,0-3.3,0.4-3.3,1.8c0,0.9,0.6,1.3,1.4,1.3c0.9,0,1.6-0.6,1.9-1.3c0.1-0.1,0.1-0.4,0.1-0.6L74.5,31.4L74.5,31.4z
				"/>
			<path class="st2" d="M80.5,29.1c0-1.6,0-2.8-0.1-3.7h3l0.1,2.1h0.1c0.6-1.6,1.9-2.4,3.1-2.4c0.3,0,0.5,0,0.7,0.1v3.4
				c-0.3-0.1-0.5-0.1-1-0.1c-1.3,0-2.2,0.7-2.4,1.8C84,30.5,84,30.8,84,31.1v5.7h-3.5V29.1z"/>
			<path class="st2" d="M98.7,34c0,1,0.1,2.1,0.1,2.8h-3.2l-0.2-1.1h-0.1c-0.7,0.9-1.9,1.4-3.3,1.4c-2.3,0-3.7-1.6-3.7-3.5
				c0-3,2.7-4.3,6.6-4.3v-0.1c0-0.6-0.3-1.5-2.1-1.5c-1.2,0-2.4,0.4-3.1,0.9l-0.7-2.3c0.8-0.4,2.3-1,4.4-1c3.8,0,5,2.2,5,4.9v4H98.7
				z M95.3,31.4c-1.9,0-3.3,0.4-3.3,1.8c0,0.9,0.6,1.3,1.4,1.3c0.9,0,1.6-0.6,1.9-1.3c0.1-0.1,0.1-0.4,0.1-0.6L95.3,31.4L95.3,31.4z
				"/>
			<path class="st2" d="M101.4,36.7V25.4h3.5v11.3H101.4z M106.9,20.5l-2.8,3.5h-2.4l2-3.5H106.9z"/>
			<path class="st2" d="M107.7,33.7c0.7,0.4,2,0.8,3.1,0.8c1,0,1.5-0.4,1.5-0.9c0-0.6-0.4-0.9-1.6-1.3c-2.4-0.8-3.3-2.1-3.3-3.4
				c0-2.2,1.8-3.7,4.6-3.7c1.3,0,2.5,0.3,3.2,0.7l-0.6,2.5c-0.5-0.3-1.5-0.7-2.5-0.7c-0.9,0-1.3,0.4-1.3,0.9s0.4,0.8,1.9,1.3
				c2.2,0.7,3.1,1.9,3.1,3.5c0,2.2-1.6,3.7-4.9,3.7c-1.5,0-2.8-0.4-3.7-0.8L107.7,33.7z"/>
			<path class="st2" d="M128.8,30.9c0,4.2-3,6-6,6c-3.4,0-5.9-2.2-5.9-5.8c0-3.7,2.4-6,6.1-6C126.5,25.1,128.8,27.5,128.8,30.9z
				 M120.6,31.1c0,1.9,0.8,3.4,2.3,3.4c1.4,0,2.2-1.3,2.2-3.4c0-1.6-0.7-3.4-2.2-3.4C121.2,27.6,120.6,29.4,120.6,31.1z"/>
		</g>
		<g>
			<path class="st2" d="M54.9,5.1c0.6-0.1,1.5-0.2,2.2-0.2c1.3,0,2.1,0.2,2.6,0.7c0.4,0.4,0.7,1,0.7,1.7c0,1.2-0.7,2-1.7,2.3v0.1
				c0.7,0.2,1.1,0.9,1.3,1.9c0.3,1.3,0.5,2.2,0.7,2.5h-1.2c-0.1-0.3-0.4-1-0.6-2.2c-0.3-1.3-0.7-1.7-1.9-1.8h-1.1v4h-1.2L54.9,5.1
				L54.9,5.1z M56.1,9.3h1.2c1.3,0,2.1-0.7,2.1-1.7c0-1.2-0.8-1.7-2.1-1.7c-0.6,0-1,0.1-1.2,0.1V9.3z"/>
			<path class="st2" d="M63.4,11.1c0,1.6,1,2.3,2.2,2.3c0.8,0,1.4-0.1,1.8-0.4l0.2,0.8c-0.4,0.2-1.1,0.4-2.2,0.4
				c-2,0-3.2-1.3-3.2-3.4s1.2-3.5,3.1-3.5c2.2,0,2.7,1.9,2.7,3.1c0,0.2,0,0.4-0.1,0.5L63.4,11.1L63.4,11.1z M66.9,10.3
				c0-0.7-0.3-1.9-1.6-1.9c-1.2,0-1.7,1.1-1.9,1.9H66.9z"/>
			<path class="st2" d="M74.7,13.9c-0.3,0.1-1,0.4-1.9,0.4c-2,0-3.3-1.3-3.3-3.4s1.4-3.5,3.5-3.5c0.7,0,1.3,0.1,1.6,0.4l-0.3,0.9
				c-0.3-0.1-0.7-0.3-1.4-0.3c-1.5,0-2.3,1.1-2.3,2.5c0,1.5,1,2.5,2.3,2.5c0.7,0,1.1-0.1,1.5-0.3L74.7,13.9z"/>
			<path class="st2" d="M77.9,5.8c0,0.4-0.3,0.7-0.7,0.7s-0.7-0.3-0.7-0.7S76.7,5,77.2,5S77.9,5.3,77.9,5.8z M76.6,14.1V7.6h1.2v6.6
				H76.6z"/>
			<path class="st2" d="M80.3,9.4c0-0.7,0-1.3-0.1-1.8h1l0.1,1.1l0,0c0.3-0.6,1.1-1.2,2.2-1.2c0.9,0,2.3,0.5,2.3,2.8v3.9h-1.2v-3.8
				c0-1-0.4-1.9-1.5-1.9c-0.7,0-1.4,0.5-1.6,1.2c-0.1,0.1-0.1,0.4-0.1,0.5v4h-1.2C80.3,14.1,80.3,9.4,80.3,9.4z"/>
			<path class="st2" d="M89.8,6v1.6h1.7v0.9h-1.7V12c0,0.8,0.2,1.3,0.9,1.3c0.3,0,0.5,0,0.7-0.1l0.1,0.9c-0.2,0.1-0.6,0.1-1,0.1
				c-0.5,0-1-0.2-1.3-0.5c-0.3-0.4-0.4-1-0.4-1.7V8.4h-1V7.5h1V6.3L89.8,6z"/>
			<path class="st2" d="M99.2,10.9c0,2.5-1.7,3.5-3.3,3.5c-1.8,0-3.1-1.3-3.1-3.4c0-2.2,1.4-3.5,3.3-3.5C98,7.4,99.2,8.8,99.2,10.9z
				 M94.1,10.9c0,1.4,0.8,2.5,2,2.5c1.1,0,2-1,2-2.5c0-1.1-0.5-2.5-1.9-2.5C94.7,8.3,94.1,9.7,94.1,10.9z"/>
			<path class="st2" d="M110.3,4.5v7.9c0,0.6,0,1.3,0.1,1.7h-1l-0.1-1.1h-0.1c-0.4,0.7-1.1,1.3-2.2,1.3c-1.6,0-2.8-1.3-2.8-3.4
				c0-2.2,1.3-3.5,2.9-3.5c1,0,1.7,0.4,2,1l0,0v-4L110.3,4.5L110.3,4.5z M109.2,10.3c0-0.1,0-0.4-0.1-0.5c-0.1-0.7-0.8-1.3-1.7-1.3
				c-1.3,0-1.9,1.1-1.9,2.5c0,1.3,0.7,2.5,1.9,2.5c0.8,0,1.6-0.5,1.7-1.4c0.1-0.1,0.1-0.3,0.1-0.5V10.3z"/>
			<path class="st2" d="M113.5,11.1c0,1.6,1,2.3,2.2,2.3c0.8,0,1.4-0.1,1.8-0.4l0.2,0.8c-0.4,0.2-1.1,0.4-2.2,0.4
				c-2,0-3.2-1.3-3.2-3.4s1.2-3.5,3.1-3.5c2.2,0,2.7,1.9,2.7,3.1c0,0.2,0,0.4-0.1,0.5L113.5,11.1L113.5,11.1z M117,10.3
				c0-0.7-0.3-1.9-1.6-1.9c-1.2,0-1.7,1.1-1.9,1.9H117z"/>
		</g>
	</g>
	<g id="Capa_2_1_">
	</g>
</g>
</svg>
